<?xml version="1.0" standalone="no"?>
<!DOCTYPE svg PUBLIC "-//W3C//DTD SVG 20010904//EN"
  "http://www.w3.org/TR/2001/REC-SVG-20010904/DTD/svg10.dtd">
<svg version="1.0" xmlns="http://www.w3.org/2000/svg"
  width="494.000000pt" height="494.000000pt" viewBox="0 0 494.000000 494.000000"
  preserveAspectRatio="xMidYMid meet">
<metadata>
Created by potrace 1.14, written by Peter Selinger 2001-2017
</metadata>
<g transform="translate(0.000000,494.000000) scale(0.100000,-0.100000)"
fill="#000000" stroke="none">
<path d="M2575 4089 c-3 -4 -13 -6 -22 -5 -15 2 -39 -1 -130 -20 -12 -2 -35
-9 -50 -16 -16 -6 -32 -12 -38 -13 -31 -7 -112 -38 -148 -57 -23 -12 -45 -21
-49 -20 -5 1 -8 -2 -8 -8 0 -5 -6 -10 -14 -10 -8 0 -28 -11 -44 -25 -17 -14
-35 -25 -41 -25 -7 0 -14 -7 -17 -15 -4 -8 -10 -13 -14 -10 -5 3 -16 -5 -24
-17 -9 -12 -16 -19 -16 -15 0 4 -13 -6 -30 -23 -16 -17 -30 -29 -30 -26 0 7
-80 -76 -119 -124 -20 -25 -40 -48 -46 -52 -5 -4 -6 -8 -2 -8 4 0 3 -6 -3 -12
-40 -48 -50 -62 -50 -73 0 -6 -9 -21 -20 -33 -12 -12 -18 -22 -14 -22 3 0 0
-10 -9 -23 -19 -29 -78 -167 -71 -167 2 0 0 -9 -6 -20 -6 -11 -13 -33 -15 -48
-3 -15 -12 -58 -20 -97 -9 -38 -13 -75 -11 -82 3 -7 2 -13 -3 -13 -4 0 -7 -60
-6 -132 2 -73 4 -133 5 -133 1 0 3 -16 5 -35 4 -45 14 -101 21 -120 3 -8 8
-28 11 -45 2 -16 9 -34 14 -39 5 -6 9 -20 9 -32 0 -13 5 -26 10 -29 6 -3 10
-15 10 -26 0 -10 4 -19 8 -19 4 0 8 -10 9 -22 1 -11 6 -24 10 -27 4 -3 23 -36
42 -74 19 -37 43 -76 53 -87 10 -10 18 -24 18 -29 0 -6 12 -22 27 -36 15 -14
25 -25 21 -25 -11 0 143 -153 187 -185 22 -17 42 -32 45 -35 13 -15 134 -90
144 -90 7 0 18 -6 25 -12 6 -7 15 -13 19 -14 4 0 19 -6 35 -12 15 -7 39 -17
55 -24 15 -6 30 -12 35 -13 4 -2 9 -4 12 -5 3 -1 8 -3 13 -5 4 -1 14 -5 22 -8
8 -4 26 -9 40 -11 14 -3 39 -9 55 -14 17 -5 40 -8 53 -7 12 1 22 -2 22 -6 0
-9 6 -9 177 -12 121 -2 123 -2 132 -27 8 -22 19 -55 24 -70 1 -3 18 -36 39
-74 21 -38 38 -73 38 -77 0 -5 5 -9 10 -9 6 0 10 -6 10 -13 0 -7 14 -28 32
-47 17 -19 32 -37 32 -40 1 -10 33 -46 102 -115 107 -107 167 -151 295 -218
75 -39 228 -97 269 -102 8 -1 23 -6 33 -10 10 -4 21 -5 24 -2 3 4 14 2 24 -3
9 -6 43 -12 74 -15 l56 -6 -5 578 c-2 318 -4 596 -4 618 0 22 2 315 4 652 4
606 4 612 -16 618 -11 3 -20 13 -20 21 0 14 -64 150 -93 199 -21 34 -51 80
-62 91 -5 7 -26 31 -45 55 -34 42 -72 81 -142 145 -73 67 -297 199 -363 213
-5 2 -14 6 -20 10 -5 4 -30 13 -55 20 -25 7 -56 17 -70 22 -14 5 -41 11 -60
13 -19 3 -46 8 -60 11 -37 10 -320 13 -325 4z m232 -1109 c56 -41 74 -136 37
-199 -26 -43 -93 -75 -144 -68 -41 5 -112 45 -104 58 2 4 -1 13 -8 21 -13 14
-15 20 -22 61 -8 55 54 140 112 153 15 3 32 7 37 8 14 4 66 -16 92 -34z"/>
</g>
</svg>
